<svg xmlns="http://www.w3.org/2000/svg" width="23.959" height="19.283" viewBox="0 0 23.959 19.283">
  <path id="TW" d="M7.541,19.283A13.809,13.809,0,0,0,21.512,5.438c0-.211,0-.422-.015-.633A10.5,10.5,0,0,0,23.959,2.29a9.916,9.916,0,0,1-2.828.753A4.861,4.861,0,0,0,23.291.362a9.721,9.721,0,0,1-3.117,1.175,4.925,4.925,0,0,0-8.5,3.329A5.445,5.445,0,0,0,11.8,5.981,14,14,0,0,1,1.672.889,4.8,4.8,0,0,0,1,3.344,4.851,4.851,0,0,0,3.193,7.4a4.979,4.979,0,0,1-2.22-.618v.06A4.878,4.878,0,0,0,4.91,11.615a5.237,5.237,0,0,1-1.292.166,6.244,6.244,0,0,1-.927-.075A4.914,4.914,0,0,0,7.282,15.08a9.892,9.892,0,0,1-6.1,2.079A10.255,10.255,0,0,1,0,17.1,13.969,13.969,0,0,0,7.541,19.283Z" fill="#fff"/>
</svg>
