<svg xmlns="http://www.w3.org/2000/svg" width="24.211" height="24" viewBox="0 0 24.211 24">
  <path id="DB" d="M1656.605-4460.5A11.567,11.567,0,0,1,1645-4472a11.566,11.566,0,0,1,11.605-11.5,11.566,11.566,0,0,1,11.605,11.5A11.567,11.567,0,0,1,1656.605-4460.5Zm1.758-9.892c-3.983,1.347-6.808,4.063-7.842,6.156a9.858,9.858,0,0,0,6.082,2.074,9.9,9.9,0,0,0,3.874-.781,40.528,40.528,0,0,0-2.114-7.449Zm3.918-.613a13.246,13.246,0,0,0-2.063.158,42.2,42.2,0,0,1,1.925,7,9.854,9.854,0,0,0,4.249-6.583A14.668,14.668,0,0,0,1662.281-4471Zm-15.584-1.281c0,.109-.006.207-.006.3a9.746,9.746,0,0,0,2.549,6.568,15.361,15.361,0,0,1,8.448-6.6c-.236-.529-.506-1.091-.8-1.667a37.175,37.175,0,0,1-9.882,1.4C1646.85-4472.283,1646.747-4472.284,1646.7-4472.285Zm15.2-.243a24.546,24.546,0,0,1,4.617.45,9.785,9.785,0,0,0-2.239-6.118,13.3,13.3,0,0,1-5.535,3.873c.327.664.579,1.223.871,1.93A18.486,18.486,0,0,1,1661.9-4472.528Zm-9.508-8.346a9.907,9.907,0,0,0-5.49,6.877h.164a37.427,37.427,0,0,0,9-1.2,62.939,62.939,0,0,0-3.675-5.68h0Zm4.216-.935a10.045,10.045,0,0,0-2.325.274,53.546,53.546,0,0,1,3.7,5.75,11.175,11.175,0,0,0,5.2-3.548A9.946,9.946,0,0,0,1656.608-4481.809Z" transform="translate(-1644.5 4484)" fill="#fff" stroke="rgba(0,0,0,0)" stroke-miterlimit="10" stroke-width="1"/>
</svg>
