<svg xmlns="http://www.w3.org/2000/svg" width="22.075" height="21.782" viewBox="0 0 22.075 21.782">
  <path id="IG" d="M1655.488-4462.719c-1.866,0-3.524-.028-4.327-.073a6.256,6.256,0,0,1-4.394-1.679,6.075,6.075,0,0,1-1.693-4.355c-.1-1.723-.1-6.851,0-8.574a6.1,6.1,0,0,1,1.693-4.354,6.221,6.221,0,0,1,4.394-1.674c.8-.045,2.46-.074,4.326-.074s3.524.028,4.327.074a6.233,6.233,0,0,1,4.394,1.679,6.081,6.081,0,0,1,1.695,4.354c.1,1.721.1,6.846,0,8.568a6.121,6.121,0,0,1-1.695,4.355,6.192,6.192,0,0,1-4.394,1.679C1659.012-4462.747,1657.354-4462.719,1655.488-4462.719Zm0-1.872c.205,0,.447,0,.746.005h.009c.332,0,.707.007,1.1.007a14.9,14.9,0,0,0,4.33-.43,3.527,3.527,0,0,0,1.994-1.975c.469-1.17.443-3.707.426-5.386,0-.292-.005-.532-.005-.74s0-.447.005-.74c.017-1.678.043-4.212-.426-5.386a3.532,3.532,0,0,0-1.994-1.976,15.139,15.139,0,0,0-4.356-.428c-.38,0-.748,0-1.089.007h-.049c-.25,0-.486,0-.687,0s-.45,0-.751-.005h-.006c-.335,0-.714-.007-1.108-.007a14.871,14.871,0,0,0-4.317.429,3.529,3.529,0,0,0-1.993,1.976c-.468,1.173-.443,3.718-.427,5.4v.008c0,.261,0,.507,0,.715s0,.446-.005.738c-.017,1.678-.043,4.213.427,5.388a3.523,3.523,0,0,0,1.993,1.975,15.109,15.109,0,0,0,4.36.429c.378,0,.746,0,1.087-.007h.049C1655.054-4464.589,1655.29-4464.591,1655.49-4464.591Zm0-3.19a5.365,5.365,0,0,1-3.8-1.559,5.273,5.273,0,0,1-1.572-3.771,5.27,5.27,0,0,1,1.572-3.77,5.367,5.367,0,0,1,3.8-1.558,5.369,5.369,0,0,1,3.8,1.558,5.269,5.269,0,0,1,1.573,3.77,5.272,5.272,0,0,1-1.573,3.771A5.367,5.367,0,0,1,1655.49-4467.781Zm0-8.792a3.483,3.483,0,0,0-3.495,3.463,3.484,3.484,0,0,0,3.495,3.465,3.484,3.484,0,0,0,3.5-3.465A3.484,3.484,0,0,0,1655.49-4476.573Zm5.6-.839a1.249,1.249,0,0,1-1.253-1.242,1.249,1.249,0,0,1,1.253-1.242,1.25,1.25,0,0,1,1.255,1.242A1.25,1.25,0,0,1,1661.087-4477.413Z" transform="translate(-1644.451 4484)" fill="#fff" stroke="rgba(0,0,0,0)" stroke-miterlimit="10" stroke-width="1"/>
</svg>
