<svg xmlns="http://www.w3.org/2000/svg" width="27.954" height="17.744" viewBox="0 0 27.954 17.744">
  <path id="BE" d="M1666.11-4466.756a6.067,6.067,0,0,1-4.494-1.734,6.324,6.324,0,0,1-1.651-4.512,6.426,6.426,0,0,1,1.7-4.487,6.061,6.061,0,0,1,4.445-1.81,5.471,5.471,0,0,1,4.335,1.908,7.024,7.024,0,0,1,1.51,4.548c0,.208-.014.417-.028.611h-8.662a3.107,3.107,0,0,0,.761,2.246,2.927,2.927,0,0,0,2.187.782,2.716,2.716,0,0,0,2.607-1.553h2.911A5.352,5.352,0,0,1,1666.11-4466.756Zm-.1-10.075a2.566,2.566,0,0,0-2.738,2.541h5.367A2.448,2.448,0,0,0,1666.006-4476.831Zm-12.967,9.765H1645V-4483.5h7.82a6.972,6.972,0,0,1,3.716.808,3.57,3.57,0,0,1,1.586,3.263,3.51,3.51,0,0,1-2.265,3.432,4,4,0,0,1,2.279,1.52,4.483,4.483,0,0,1,.748,2.64,4.279,4.279,0,0,1-1.792,3.638A7.02,7.02,0,0,1,1653.04-4467.066Zm-4.394-7.316v4.526h3.9c1.789,0,2.7-.733,2.7-2.18,0-1.557-.882-2.346-2.621-2.346Zm0-6.311v3.834h3.7c1.014,0,2.223-.339,2.223-1.957,0-1.264-.818-1.878-2.5-1.878Zm20.675-.325h-6.725v-1.618h6.725v1.617Z" transform="translate(-1644.5 4484)" fill="#fff" stroke="rgba(0,0,0,0)" stroke-miterlimit="10" stroke-width="1"/>
</svg>
