<svg xmlns="http://www.w3.org/2000/svg" width="117" height="113" viewBox="0 0 117 113">
  <g id="H1" transform="translate(-273 -3546)">
    <g id="Rectangle" transform="translate(284 3613)" fill="none" stroke="#fff" stroke-miterlimit="10" stroke-width="1">
      <path d="M0,0H0A45,45,0,0,1,45,45v1a0,0,0,0,1,0,0H0a0,0,0,0,1,0,0V0A0,0,0,0,1,0,0Z" stroke="none"/>
      <path d="M.765.5h0A43.735,43.735,0,0,1,44.5,44.235v1a.265.265,0,0,1-.265.265H.765A.265.265,0,0,1,.5,45.235V.765A.265.265,0,0,1,.765.5Z" fill="none"/>
    </g>
    <g id="Rectangle_Copy_5" data-name="Rectangle Copy 5" transform="translate(323 3556)" fill="none" stroke-miterlimit="10">
      <path d="M45,0V46H0Z" stroke="none"/>
      <path d="M 44 2.452228546142578 L 2.377178192138672 45 L 44 45 L 44 2.452228546142578 M 45 0 L 45 46 L 0 46 L 45 0 Z" stroke="none" fill="#fff"/>
    </g>
    <g id="Rectangle_Copy_2" data-name="Rectangle Copy 2" transform="translate(345 3613)" fill="none" stroke="#fff" stroke-miterlimit="10" stroke-width="1">
      <rect width="45" height="46" stroke="none"/>
      <rect x="0.5" y="0.5" width="44" height="45" fill="none"/>
    </g>
    <g id="Rectangle_Copy_4" data-name="Rectangle Copy 4" transform="translate(273 3546)" fill="none" stroke="#fff" stroke-miterlimit="10" stroke-width="1">
      <rect width="45" height="46" stroke="none"/>
      <rect x="0.5" y="0.5" width="44" height="45" fill="none"/>
    </g>
  </g>
</svg>
