<svg xmlns="http://www.w3.org/2000/svg" width="266.383" height="37" viewBox="0 0 266.383 37">
  <path id="Logo-_New" data-name="Logo- New" d="M254.952,37H242.463a.469.469,0,0,1-.529-.528V.528A.469.469,0,0,1,242.463,0h12.489a12.15,12.15,0,0,1,8.335,2.749,9.5,9.5,0,0,1,3.1,7.453V26.8a9.5,9.5,0,0,1-3.1,7.453A12.15,12.15,0,0,1,254.952,37ZM245.9,3.277a.188.188,0,0,0-.212.211V33.512a.188.188,0,0,0,.212.211h9.208a7.493,7.493,0,0,0,5.477-2.009,7.26,7.26,0,0,0,2.038-5.391V10.73a7.383,7.383,0,0,0-2.011-5.444,7.472,7.472,0,0,0-5.5-2.009ZM236.836,37h-2.858a.618.618,0,0,1-.635-.423l-2.117-6.66a.21.21,0,0,0-.212-.158H215.191a.208.208,0,0,0-.212.158l-2.117,6.66a.62.62,0,0,1-.635.423H209.37a.471.471,0,0,1-.393-.14.5.5,0,0,1-.031-.441l11.7-36A.62.62,0,0,1,221.277,0h3.6a.618.618,0,0,1,.634.423l11.749,36,.053.211C237.312,36.876,237.152,37,236.836,37ZM223.076,4.757a.17.17,0,0,0-.158.105l-6.88,21.566a.147.147,0,0,0,.026.185.258.258,0,0,0,.185.079H229.9a.254.254,0,0,0,.185-.079.147.147,0,0,0,.027-.185l-6.88-21.566A.17.17,0,0,0,223.076,4.757ZM204.272,37h-2.805a.622.622,0,0,1-.634-.37l-7.78-16.385a.208.208,0,0,0-.212-.159h-9a.188.188,0,0,0-.212.212V36.472A.469.469,0,0,1,183.1,37h-2.7a.469.469,0,0,1-.529-.528V.528A.469.469,0,0,1,180.4,0h13.706a9.943,9.943,0,0,1,7.356,2.828,10.062,10.062,0,0,1,2.805,7.374,9.991,9.991,0,0,1-2.012,6.29,9.1,9.1,0,0,1-5.45,3.33.235.235,0,0,0-.137.133.16.16,0,0,0,.031.131l7.939,16.28a.6.6,0,0,1,.052.265C204.7,36.875,204.553,37,204.272,37ZM183.845,3.277a.188.188,0,0,0-.212.211V16.862a.188.188,0,0,0,.212.211h9.843a6.762,6.762,0,0,0,4.974-1.9,6.747,6.747,0,0,0,1.905-4.969,6.835,6.835,0,0,0-1.905-4.995,6.71,6.71,0,0,0-4.974-1.93ZM147.189,37h-25.3a.632.632,0,0,1-.634-.635V.635a.611.611,0,0,1,.185-.449A.614.614,0,0,1,121.892,0h7.515a.615.615,0,0,1,.45.185.614.614,0,0,1,.185.449v28.6a.234.234,0,0,0,.265.264h16.881a.633.633,0,0,1,.635.635v6.237a.632.632,0,0,1-.635.635Zm-28.118,0h-25.3a.632.632,0,0,1-.635-.635V.635a.614.614,0,0,1,.185-.449A.615.615,0,0,1,93.775,0h7.515a.614.614,0,0,1,.449.185.612.612,0,0,1,.185.449v28.6a.234.234,0,0,0,.265.264h16.882a.632.632,0,0,1,.635.635v6.237a.63.63,0,0,1-.635.635ZM90.9,37H82.8a.7.7,0,0,1-.741-.528l-1.376-4.7c-.07-.14-.159-.211-.265-.211H68.355c-.105,0-.194.071-.265.212l-1.376,4.7a.7.7,0,0,1-.741.528h-8.1a.6.6,0,0,1-.477-.185.581.581,0,0,1-.052-.555L68.673.528A.667.667,0,0,1,69.361,0h10a.665.665,0,0,1,.688.528L91.429,36.26a.592.592,0,0,1,.052.265C91.481,36.84,91.286,37,90.9,37ZM74.359,10.7l-.023,0c-.071.017-.123.077-.159.185L70.207,24.473a.308.308,0,0,0,.038.252.218.218,0,0,0,.175.065H78.3a.244.244,0,0,0,.209-.075.268.268,0,0,0,0-.241L74.494,10.888C74.463,10.764,74.417,10.7,74.359,10.7ZM55.955,37H30.923a.632.632,0,0,1-.635-.635V.635a.614.614,0,0,1,.185-.449A.615.615,0,0,1,30.923,0H55.955a.631.631,0,0,1,.634.634V6.872a.631.631,0,0,1-.634.635H39.337a.234.234,0,0,0-.265.264v6.5a.235.235,0,0,0,.265.265H49.974a.632.632,0,0,1,.635.635v6.184a.633.633,0,0,1-.635.634H39.337a.234.234,0,0,0-.265.264V29.23a.234.234,0,0,0,.265.264H55.955a.632.632,0,0,1,.634.635v6.237a.63.63,0,0,1-.634.635ZM27.784,37H19.845a.752.752,0,0,1-.741-.475L12.86,22.464a.342.342,0,0,0-.318-.212H9.05a.235.235,0,0,0-.265.265V36.365A.632.632,0,0,1,8.15,37H.635a.615.615,0,0,1-.45-.185A.615.615,0,0,1,0,36.365V.635A.614.614,0,0,1,.185.185.615.615,0,0,1,.635,0H16.353a12.791,12.791,0,0,1,6.138,1.427,10.115,10.115,0,0,1,4.1,4.044,12.187,12.187,0,0,1,1.455,6A10.749,10.749,0,0,1,26.3,17.6a9.875,9.875,0,0,1-4.869,3.753.252.252,0,0,0-.158.37L28.26,36.26a.821.821,0,0,1,.105.317C28.365,36.858,28.17,37,27.784,37ZM9.05,7.506a.234.234,0,0,0-.265.264v7.506a.235.235,0,0,0,.265.265h5.874A4.621,4.621,0,0,0,18.1,14.457a3.684,3.684,0,0,0,1.217-2.881A3.827,3.827,0,0,0,18.1,8.616a4.551,4.551,0,0,0-3.175-1.11ZM163.982,36.895H156.52a.631.631,0,0,1-.634-.634V23.733a.746.746,0,0,0-.053-.318L144.984.74a.8.8,0,0,1-.106-.317c0-.281.2-.423.582-.423h8.149a.751.751,0,0,1,.741.476l5.769,13.372c.052.105.106.159.158.159s.106-.053.159-.159L166.258.476A.75.75,0,0,1,167,0h8.2a.584.584,0,0,1,.5.185.568.568,0,0,1-.027.554L164.67,23.415a.724.724,0,0,0-.053.318V36.26a.633.633,0,0,1-.635.634Z" transform="translate(0 0)" fill="#fff"/>
</svg>
